<?xml version="1.0" encoding="utf-8"?>
<svg version="1.1" xmlns:xlink="http://www.w3.org/1999/xlink" width="13px" height="13px" viewBox="44 411  13 13" xmlns="http://www.w3.org/2000/svg">
  <path d="M 50.5 411  C 54.14 411  57 413.86  57 417.5  C 57 421.14  54.14 424  50.5 424  C 46.86 424  44 421.14  44 417.5  C 44 413.86  46.86 411  50.5 411  Z " fill-rule="nonzero" fill="#f0f0f0" stroke="none" />
  <path d="M 50.5 411.5  C 53.86 411.5  56.5 414.14  56.5 417.5  C 56.5 420.86  53.86 423.5  50.5 423.5  C 47.14 423.5  44.5 420.86  44.5 417.5  C 44.5 414.14  47.14 411.5  50.5 411.5  Z " stroke-width="1" stroke="#797979" fill="none" />
  <path d="M 50.5 420.75  C 48.68 420.75  47.25 419.32  47.25 417.5  C 47.25 415.68  48.68 414.25  50.5 414.25  C 52.32 414.25  53.75 415.68  53.75 417.5  C 53.75 419.32  52.32 420.75  50.5 420.75  " fill-rule="nonzero" fill="#797979" stroke="none" />
</svg>