<?xml version="1.0" encoding="utf-8"?>
<svg version="1.1" xmlns:xlink="http://www.w3.org/1999/xlink" width="106px" height="38px" xmlns="http://www.w3.org/2000/svg">
  <g transform="matrix(1 0 0 1 -6 -57 )">
    <path d="M 105 37  L 0.09872963287734776 37  C 0.21020256193207215 37  -0.17121330549942756 19.208897595725734  0.09872963287734776 19.240000000000002  C 0.36867257125412306 19.271102404274266  11.893476785648698 6.195041508170529  15.837803738619904 6.457702582368655  C 20.290690679169696 6.754229741763136  22.093802590819028 10.118841977368968  28.282256041316575 9.126447016918966  C 36.25684242771737 7.847623575029609  35.34136994851087 1.1202137132680332  40.72670834401322 1.1202137132680332  C 46.112046739515584 1.1202137132680332  46.93888316669285 10.312555654496885  53.171160646709914 9.126447016918966  C 59.403438126726904 7.940338379341053  60.16826600152921 5.271593944790742  66.03042802616314 2.8993766696349064  C 71.89259005079695 0.5271593944790754  72.3870263281249 -1.252003561887799  78.06006525210319 1.1202137132680332  C 83.73310417608151 3.4924309884238673  86.11363916662508 9.422974176313447  90.50451755479985 9.126447016918966  C 92.68035600477108 8.979507125208727  104.59615384615385 5.624  104.59615384615385 5.624  C 104.59615384615385 5.624  105 37  105 37  Z " fill-rule="nonzero" fill="#199ed8" stroke="none" fill-opacity="0.4980392156862745" transform="matrix(1 0 0 1 6 57 )" />
  </g>
</svg>