<?xml version="1.0" encoding="utf-8"?>
<svg version="1.1" xmlns:xlink="http://www.w3.org/1999/xlink" width="10px" height="17px" xmlns="http://www.w3.org/2000/svg">
  <defs>
    <mask fill="white" id="clip8">
      <path d="M 9.828178694158112 8.108216432865714  C 9.942726231386018 8.221776887107536  10 8.352371409485645  10 8.499999999999986  C 10 8.647628590514353  9.942726231386018 8.778223112892464  9.828178694158112 8.891783567134285  L 1.8213058419243566 16.829659318637265  C 1.70675830469645 16.94321977287909  1.5750286368843263 17  1.4261168384879852 17  C 1.2772050400916442 17  1.1454753722795203 16.94321977287909  1.030927835051557 16.829659318637265  L 0.17182130584188826 15.977955911823631  C 0.0572737686139817 15.864395457581837  0 15.733800935203757  0 15.58617234468936  C 0 15.438543754175019  0.0572737686139817 15.307949231796911  0.17182130584188826 15.194388777555117  L 6.924398625429546 8.499999999999986  L 0.17182130584188826 1.8056112224448828  C 0.0572737686139817 1.6920507682030896  0 1.56145624582498  0 1.4138276553106401  C 0 1.2661990647962431  0.0572737686139817 1.1356045424181622  0.17182130584188826 1.0220440881763402  L 1.030927835051557 0.17034068136273287  C 1.1454753722795203 0.056780227120910964  1.2772050400916442 0  1.4261168384879852 0  C 1.5750286368843263 0  1.70675830469645 0.056780227120910964  1.8213058419243566 0.17034068136273287  L 9.828178694158112 8.108216432865714  Z " fill-rule="evenodd" />
    </mask>
  </defs>
  <g transform="matrix(1 0 0 1 -360 -150 )">
    <path d="M 9.828178694158112 8.108216432865714  C 9.942726231386018 8.221776887107536  10 8.352371409485645  10 8.499999999999986  C 10 8.647628590514353  9.942726231386018 8.778223112892464  9.828178694158112 8.891783567134285  L 1.8213058419243566 16.829659318637265  C 1.70675830469645 16.94321977287909  1.5750286368843263 17  1.4261168384879852 17  C 1.2772050400916442 17  1.1454753722795203 16.94321977287909  1.030927835051557 16.829659318637265  L 0.17182130584188826 15.977955911823631  C 0.0572737686139817 15.864395457581837  0 15.733800935203757  0 15.58617234468936  C 0 15.438543754175019  0.0572737686139817 15.307949231796911  0.17182130584188826 15.194388777555117  L 6.924398625429546 8.499999999999986  L 0.17182130584188826 1.8056112224448828  C 0.0572737686139817 1.6920507682030896  0 1.56145624582498  0 1.4138276553106401  C 0 1.2661990647962431  0.0572737686139817 1.1356045424181622  0.17182130584188826 1.0220440881763402  L 1.030927835051557 0.17034068136273287  C 1.1454753722795203 0.056780227120910964  1.2772050400916442 0  1.4261168384879852 0  C 1.5750286368843263 0  1.70675830469645 0.056780227120910964  1.8213058419243566 0.17034068136273287  L 9.828178694158112 8.108216432865714  Z " fill-rule="nonzero" fill="#cccccc" stroke="none" transform="matrix(1 0 0 1 360 150 )" />
    <path d="M 9.828178694158112 8.108216432865714  C 9.942726231386018 8.221776887107536  10 8.352371409485645  10 8.499999999999986  C 10 8.647628590514353  9.942726231386018 8.778223112892464  9.828178694158112 8.891783567134285  L 1.8213058419243566 16.829659318637265  C 1.70675830469645 16.94321977287909  1.5750286368843263 17  1.4261168384879852 17  C 1.2772050400916442 17  1.1454753722795203 16.94321977287909  1.030927835051557 16.829659318637265  L 0.17182130584188826 15.977955911823631  C 0.0572737686139817 15.864395457581837  0 15.733800935203757  0 15.58617234468936  C 0 15.438543754175019  0.0572737686139817 15.307949231796911  0.17182130584188826 15.194388777555117  L 6.924398625429546 8.499999999999986  L 0.17182130584188826 1.8056112224448828  C 0.0572737686139817 1.6920507682030896  0 1.56145624582498  0 1.4138276553106401  C 0 1.2661990647962431  0.0572737686139817 1.1356045424181622  0.17182130584188826 1.0220440881763402  L 1.030927835051557 0.17034068136273287  C 1.1454753722795203 0.056780227120910964  1.2772050400916442 0  1.4261168384879852 0  C 1.5750286368843263 0  1.70675830469645 0.056780227120910964  1.8213058419243566 0.17034068136273287  L 9.828178694158112 8.108216432865714  Z " stroke-width="2" stroke="#797979" fill="none" transform="matrix(1 0 0 1 360 150 )" mask="url(#clip8)" />
  </g>
</svg>