<?xml version="1.0" encoding="utf-8"?>
<svg version="1.1" xmlns:xlink="http://www.w3.org/1999/xlink" width="80px" height="40px" xmlns="http://www.w3.org/2000/svg">
  <defs>
    <filter x="296px" y="245px" width="80px" height="40px" filterUnits="userSpaceOnUse" id="filter14">
      <feOffset dx="1" dy="1" in="SourceAlpha" result="shadowOffsetInner" />
      <feGaussianBlur stdDeviation="2.5" in="shadowOffsetInner" result="shadowGaussian" />
      <feComposite in2="shadowGaussian" operator="atop" in="SourceAlpha" result="shadowComposite" />
      <feColorMatrix type="matrix" values="0 0 0 0 0  0 0 0 0 0  0 0 0 0 0  0 0 0 0.14509803921568626 0  " in="shadowComposite" />
    </filter>
    <g id="widget15">
      <path d="M 300.5 253  A 3.5 3.5 0 0 1 304 249.5 L 366 249.5  A 3.5 3.5 0 0 1 369.5 253 L 369.5 275  A 3.5 3.5 0 0 1 366 278.5 L 304 278.5  A 3.5 3.5 0 0 1 300.5 275 L 300.5 253  Z " fill-rule="nonzero" fill="#1abc9c" stroke="none" fill-opacity="0" />
      <path d="M 300.5 253  A 3.5 3.5 0 0 1 304 249.5 L 366 249.5  A 3.5 3.5 0 0 1 369.5 253 L 369.5 275  A 3.5 3.5 0 0 1 366 278.5 L 304 278.5  A 3.5 3.5 0 0 1 300.5 275 L 300.5 253  Z " stroke-width="1" stroke="#d7d7d7" fill="none" />
    </g>
  </defs>
  <g transform="matrix(1 0 0 1 -296 -245 )">
    <use xlink:href="#widget15" filter="url(#filter14)" />
    <use xlink:href="#widget15" />
  </g>
</svg>