<?xml version="1.0" encoding="utf-8"?>
<svg version="1.1" xmlns:xlink="http://www.w3.org/1999/xlink" width="13px" height="13px" viewBox="44 164  13 13" xmlns="http://www.w3.org/2000/svg">
  <path d="M 50.5 164  C 54.14 164  57 166.86  57 170.5  C 57 174.14  54.14 177  50.5 177  C 46.86 177  44 174.14  44 170.5  C 44 166.86  46.86 164  50.5 164  Z " fill-rule="nonzero" fill="#ffffff" stroke="none" />
  <path d="M 50.5 164.5  C 53.86 164.5  56.5 167.14  56.5 170.5  C 56.5 173.86  53.86 176.5  50.5 176.5  C 47.14 176.5  44.5 173.86  44.5 170.5  C 44.5 167.14  47.14 164.5  50.5 164.5  Z " stroke-width="1" stroke="#797979" fill="none" />
  <path d="M 50.5 173.75  C 48.68 173.75  47.25 172.32  47.25 170.5  C 47.25 168.68  48.68 167.25  50.5 167.25  C 52.32 167.25  53.75 168.68  53.75 170.5  C 53.75 172.32  52.32 173.75  50.5 173.75  " fill-rule="nonzero" fill="#797979" stroke="none" />
</svg>