<?xml version="1.0" encoding="utf-8"?>
<svg version="1.1" xmlns:xlink="http://www.w3.org/1999/xlink" width="11px" height="11px" xmlns="http://www.w3.org/2000/svg">
  <g transform="matrix(1 0 0 1 -345 -146 )">
    <path d="M 350.5 147  C 353.02 147  355 148.98  355 151.5  C 355 154.02  353.02 156  350.5 156  C 347.98 156  346 154.02  346 151.5  C 346 148.98  347.98 147  350.5 147  Z " fill-rule="nonzero" fill="#ffffff" stroke="none" />
    <path d="M 350.5 147  C 353.02 147  355 148.98  355 151.5  C 355 154.02  353.02 156  350.5 156  C 347.98 156  346 154.02  346 151.5  C 346 148.98  347.98 147  350.5 147  Z " stroke-width="2" stroke="#7ecf51" fill="none" />
  </g>
</svg>