<?xml version="1.0" encoding="utf-8"?>
<svg version="1.1" xmlns:xlink="http://www.w3.org/1999/xlink" width="11px" height="9px" xmlns="http://www.w3.org/2000/svg">
  <defs>
    <mask fill="white" id="clip7">
      <path d="M 10.801290322580645 1.2424242424242413  C 10.933763440860215 1.3838383838383805  11 1.555555555555551  11 1.7575757575757613  C 11 1.959595959595955  10.933763440860215 2.131313131313135  10.801290322580645 2.2727272727272734  L 5.663225806451612 7.757575757575758  L 4.6980645161290315 8.78787878787879  C 4.565591397849461 8.92929292929293  4.4047311827957 9  4.215483870967741 9  C 4.026236559139784 9  3.865376344086023 8.92929292929293  3.732903225806453 8.78787878787879  L 2.767741935483871 7.757575757575758  L 0.1987096774193562 5.015151515151512  C 0.0662365591397851 4.873737373737372  0 4.702020202020204  0 4.5  C 0 4.297979797979799  0.0662365591397851 4.126262626262628  0.1987096774193562 3.984848484848488  L 1.1638709677419365 2.954545454545455  C 1.2963440860215076 2.8131313131313167  1.4572043010752675 2.742424242424237  1.6464516129032267 2.7424242424242475  C 1.8356989247311857 2.742424242424237  1.9965591397849458 2.8131313131313167  2.129032258064516 2.954545454545455  L 4.215483870967741 5.189393939393941  L 8.870967741935484 0.21212121212120927  C 9.003440860215054 0.07070707070706916  9.16430107526882 0  9.353548387096772 0  C 9.542795698924733 0  9.703655913978492 0.07070707070706916  9.836129032258063 0.21212121212120927  L 10.801290322580645 1.2424242424242413  Z " fill-rule="evenodd" />
    </mask>
  </defs>
  <g transform="matrix(1 0 0 1 -4 -5 )">
    <path d="M 10.801290322580645 1.2424242424242413  C 10.933763440860215 1.3838383838383805  11 1.555555555555551  11 1.7575757575757613  C 11 1.959595959595955  10.933763440860215 2.131313131313135  10.801290322580645 2.2727272727272734  L 5.663225806451612 7.757575757575758  L 4.6980645161290315 8.78787878787879  C 4.565591397849461 8.92929292929293  4.4047311827957 9  4.215483870967741 9  C 4.026236559139784 9  3.865376344086023 8.92929292929293  3.732903225806453 8.78787878787879  L 2.767741935483871 7.757575757575758  L 0.1987096774193562 5.015151515151512  C 0.0662365591397851 4.873737373737372  0 4.702020202020204  0 4.5  C 0 4.297979797979799  0.0662365591397851 4.126262626262628  0.1987096774193562 3.984848484848488  L 1.1638709677419365 2.954545454545455  C 1.2963440860215076 2.8131313131313167  1.4572043010752675 2.742424242424237  1.6464516129032267 2.7424242424242475  C 1.8356989247311857 2.742424242424237  1.9965591397849458 2.8131313131313167  2.129032258064516 2.954545454545455  L 4.215483870967741 5.189393939393941  L 8.870967741935484 0.21212121212120927  C 9.003440860215054 0.07070707070706916  9.16430107526882 0  9.353548387096772 0  C 9.542795698924733 0  9.703655913978492 0.07070707070706916  9.836129032258063 0.21212121212120927  L 10.801290322580645 1.2424242424242413  Z " fill-rule="nonzero" fill="#cccccc" stroke="none" transform="matrix(1 0 0 1 4 5 )" />
    <path d="M 10.801290322580645 1.2424242424242413  C 10.933763440860215 1.3838383838383805  11 1.555555555555551  11 1.7575757575757613  C 11 1.959595959595955  10.933763440860215 2.131313131313135  10.801290322580645 2.2727272727272734  L 5.663225806451612 7.757575757575758  L 4.6980645161290315 8.78787878787879  C 4.565591397849461 8.92929292929293  4.4047311827957 9  4.215483870967741 9  C 4.026236559139784 9  3.865376344086023 8.92929292929293  3.732903225806453 8.78787878787879  L 2.767741935483871 7.757575757575758  L 0.1987096774193562 5.015151515151512  C 0.0662365591397851 4.873737373737372  0 4.702020202020204  0 4.5  C 0 4.297979797979799  0.0662365591397851 4.126262626262628  0.1987096774193562 3.984848484848488  L 1.1638709677419365 2.954545454545455  C 1.2963440860215076 2.8131313131313167  1.4572043010752675 2.742424242424237  1.6464516129032267 2.7424242424242475  C 1.8356989247311857 2.742424242424237  1.9965591397849458 2.8131313131313167  2.129032258064516 2.954545454545455  L 4.215483870967741 5.189393939393941  L 8.870967741935484 0.21212121212120927  C 9.003440860215054 0.07070707070706916  9.16430107526882 0  9.353548387096772 0  C 9.542795698924733 0  9.703655913978492 0.07070707070706916  9.836129032258063 0.21212121212120927  L 10.801290322580645 1.2424242424242413  Z " stroke-width="2" stroke="#797979" fill="none" transform="matrix(1 0 0 1 4 5 )" mask="url(#clip7)" />
  </g>
</svg>