<?xml version="1.0" encoding="utf-8"?>
<svg version="1.1" xmlns:xlink="http://www.w3.org/1999/xlink" width="374px" height="101px" xmlns="http://www.w3.org/2000/svg">
  <g transform="matrix(1 0 0 1 1.5 -47.5 )">
    <path d="M 0 97  L 15.205479452054794 77.06849315068493  L 29.988584474885844 53.150684931506845  L 44.77168949771689 43.84931506849315  L 59.690454644740576 31.44137931034482  L 74.337899543379 25.91095890410959  L 89.12100456621005 15.945205479452055  L 104.1421892476161 0  L 118.2648401826484 13.287671232876711  L 133.4703196347032 32.554794520547944  L 148.25342465753425 57.136986301369866  L 163.0365296803653 55.14383561643836  L 177.81963470319636 82.3835616438356  L 192.60273972602744 49.16438356164384  L 207.38584474885843 61.12328767123287  L 222.16894977168948 39.863013698630134  L 237.3744292237443 43.18493150684932  L 251.31278538812785 33.88356164383562  L 266.51826484018267 25.246575342465754  L 281.7237442922374 28.568493150684933  L 296.08447488584477 32.554794520547944  L 311.28995433789953 19.267123287671232  L 325.6506849315068 52.48630136986302  L 340.85616438356163 35.87671232876712  L 355.2168949771689 25.91095890410959  L 370 13.287671232876711  " stroke-width="3" stroke="#8400ff" fill="none" stroke-opacity="0.4980392156862745" transform="matrix(1 0 0 1 0 49 )" />
  </g>
</svg>