<?xml version="1.0" encoding="utf-8"?>
<svg version="1.1" xmlns:xlink="http://www.w3.org/1999/xlink" width="370px" height="96px" xmlns="http://www.w3.org/2000/svg">
  <g transform="matrix(1 0 0 1 1.5 -52.5 )">
    <path d="M 0 92  L 14.64 83.80821917808218  L 29.28 74.35616438356165  L 44.33828571428572 41.58904109589041  L 58.97828571428571 20.164383561643834  L 73.61828571428572 25.5  L 87.84 25.5  L 103.13406068822758 0  L 115.86514285714286 59.86301369863014  L 131.76 55.45205479452054  L 146.8182857142857 54.19178082191781  L 160.6217142857143 41.58904109589041  L 176.0982857142857 78.13698630136986  L 191.15657142857137 75.61643835616438  L 205.3782857142857 57.97260273972602  L 220.0182857142857 37.80821917808219  L 234.6582857142857 24.575342465753426  L 248.88000000000002 32.136986301369866  L 263.1017142857143 28.98630136986301  L 277.7417142857143 49.780821917808225  L 293.21828571428574 57.34246575342466  L 307.44 41.58904109589041  L 322.08 44.10958904109589  L 336.3017142857143 27.72602739726027  L 351.77828571428574 24.575342465753426  L 366 32.136986301369866  " stroke-width="3" stroke="#7ecf51" fill="none" transform="matrix(1 0 0 1 0 54 )" />
  </g>
</svg>